ISO-10303-21;
HEADER;
FILE_DESCRIPTION(('FreeCAD Model'),'2;1');
FILE_NAME('Open CASCADE Shape Model','2025-07-04T14:36:09',('FreeCAD'),(
    'FreeCAD'),'Open CASCADE STEP processor 7.8','FreeCAD','Unknown');
FILE_SCHEMA(('AUTOMOTIVE_DESIGN { 1 0 10303 214 1 1 1 1 }'));
ENDSEC;
DATA;
#1 = APPLICATION_PROTOCOL_DEFINITION('international standard',
  'automotive_design',2000,#2);
#2 = APPLICATION_CONTEXT(
  'core data for automotive mechanical design processes');
#3 = SHAPE_DEFINITION_REPRESENTATION(#4,#10);
#4 = PRODUCT_DEFINITION_SHAPE('','',#5);
#5 = PRODUCT_DEFINITION('design','',#6,#9);
#6 = PRODUCT_DEFINITION_FORMATION('','',#7);
#7 = PRODUCT('Open CASCADE STEP translator 7.8 1',
  'Open CASCADE STEP translator 7.8 1','',(#8));
#8 = PRODUCT_CONTEXT('',#2,'mechanical');
#9 = PRODUCT_DEFINITION_CONTEXT('part definition',#2,'design');
#10 = ADVANCED_BREP_SHAPE_REPRESENTATION('',(#11,#15),#557);
#11 = AXIS2_PLACEMENT_3D('',#12,#13,#14);
#12 = CARTESIAN_POINT('',(0.,0.,0.));
#13 = DIRECTION('',(0.,0.,1.));
#14 = DIRECTION('',(1.,0.,-0.));
#15 = MANIFOLD_SOLID_BREP('',#16);
#16 = CLOSED_SHELL('',(#17,#57,#88,#112,#145,#169,#202,#227,#252,#277,
    #308,#333,#364,#386,#410,#427,#451,#475,#492,#516,#533,#545));
#17 = ADVANCED_FACE('',(#18),#52,.F.);
#18 = FACE_BOUND('',#19,.F.);
#19 = EDGE_LOOP('',(#20,#30,#38,#46));
#20 = ORIENTED_EDGE('',*,*,#21,.F.);
#21 = EDGE_CURVE('',#22,#24,#26,.T.);
#22 = VERTEX_POINT('',#23);
#23 = CARTESIAN_POINT('',(0.,0.,0.));
#24 = VERTEX_POINT('',#25);
#25 = CARTESIAN_POINT('',(0.,0.,2.));
#26 = LINE('',#27,#28);
#27 = CARTESIAN_POINT('',(0.,0.,0.));
#28 = VECTOR('',#29,1.);
#29 = DIRECTION('',(0.,0.,1.));
#30 = ORIENTED_EDGE('',*,*,#31,.T.);
#31 = EDGE_CURVE('',#22,#32,#34,.T.);
#32 = VERTEX_POINT('',#33);
#33 = CARTESIAN_POINT('',(0.,100.,0.));
#34 = LINE('',#35,#36);
#35 = CARTESIAN_POINT('',(0.,0.,0.));
#36 = VECTOR('',#37,1.);
#37 = DIRECTION('',(0.,1.,0.));
#38 = ORIENTED_EDGE('',*,*,#39,.T.);
#39 = EDGE_CURVE('',#32,#40,#42,.T.);
#40 = VERTEX_POINT('',#41);
#41 = CARTESIAN_POINT('',(0.,100.,2.));
#42 = LINE('',#43,#44);
#43 = CARTESIAN_POINT('',(0.,100.,0.));
#44 = VECTOR('',#45,1.);
#45 = DIRECTION('',(0.,0.,1.));
#46 = ORIENTED_EDGE('',*,*,#47,.F.);
#47 = EDGE_CURVE('',#24,#40,#48,.T.);
#48 = LINE('',#49,#50);
#49 = CARTESIAN_POINT('',(0.,0.,2.));
#50 = VECTOR('',#51,1.);
#51 = DIRECTION('',(0.,1.,0.));
#52 = PLANE('',#53);
#53 = AXIS2_PLACEMENT_3D('',#54,#55,#56);
#54 = CARTESIAN_POINT('',(0.,0.,0.));
#55 = DIRECTION('',(1.,0.,0.));
#56 = DIRECTION('',(0.,0.,1.));
#57 = ADVANCED_FACE('',(#58),#83,.F.);
#58 = FACE_BOUND('',#59,.F.);
#59 = EDGE_LOOP('',(#60,#68,#69,#77));
#60 = ORIENTED_EDGE('',*,*,#61,.F.);
#61 = EDGE_CURVE('',#22,#62,#64,.T.);
#62 = VERTEX_POINT('',#63);
#63 = CARTESIAN_POINT('',(100.,0.,0.));
#64 = LINE('',#65,#66);
#65 = CARTESIAN_POINT('',(0.,0.,0.));
#66 = VECTOR('',#67,1.);
#67 = DIRECTION('',(1.,0.,0.));
#68 = ORIENTED_EDGE('',*,*,#21,.T.);
#69 = ORIENTED_EDGE('',*,*,#70,.T.);
#70 = EDGE_CURVE('',#24,#71,#73,.T.);
#71 = VERTEX_POINT('',#72);
#72 = CARTESIAN_POINT('',(100.,0.,2.));
#73 = LINE('',#74,#75);
#74 = CARTESIAN_POINT('',(0.,0.,2.));
#75 = VECTOR('',#76,1.);
#76 = DIRECTION('',(1.,0.,0.));
#77 = ORIENTED_EDGE('',*,*,#78,.F.);
#78 = EDGE_CURVE('',#62,#71,#79,.T.);
#79 = LINE('',#80,#81);
#80 = CARTESIAN_POINT('',(100.,0.,0.));
#81 = VECTOR('',#82,1.);
#82 = DIRECTION('',(0.,0.,1.));
#83 = PLANE('',#84);
#84 = AXIS2_PLACEMENT_3D('',#85,#86,#87);
#85 = CARTESIAN_POINT('',(0.,0.,0.));
#86 = DIRECTION('',(0.,1.,0.));
#87 = DIRECTION('',(0.,0.,1.));
#88 = ADVANCED_FACE('',(#89),#107,.T.);
#89 = FACE_BOUND('',#90,.T.);
#90 = EDGE_LOOP('',(#91,#92,#93,#101));
#91 = ORIENTED_EDGE('',*,*,#47,.F.);
#92 = ORIENTED_EDGE('',*,*,#70,.T.);
#93 = ORIENTED_EDGE('',*,*,#94,.T.);
#94 = EDGE_CURVE('',#71,#95,#97,.T.);
#95 = VERTEX_POINT('',#96);
#96 = CARTESIAN_POINT('',(100.,100.,2.));
#97 = LINE('',#98,#99);
#98 = CARTESIAN_POINT('',(100.,0.,2.));
#99 = VECTOR('',#100,1.);
#100 = DIRECTION('',(0.,1.,0.));
#101 = ORIENTED_EDGE('',*,*,#102,.F.);
#102 = EDGE_CURVE('',#40,#95,#103,.T.);
#103 = LINE('',#104,#105);
#104 = CARTESIAN_POINT('',(0.,100.,2.));
#105 = VECTOR('',#106,1.);
#106 = DIRECTION('',(1.,0.,0.));
#107 = PLANE('',#108);
#108 = AXIS2_PLACEMENT_3D('',#109,#110,#111);
#109 = CARTESIAN_POINT('',(0.,0.,2.));
#110 = DIRECTION('',(0.,0.,1.));
#111 = DIRECTION('',(1.,0.,0.));
#112 = ADVANCED_FACE('',(#113),#140,.F.);
#113 = FACE_BOUND('',#114,.F.);
#114 = EDGE_LOOP('',(#115,#124,#132,#139));
#115 = ORIENTED_EDGE('',*,*,#116,.T.);
#116 = EDGE_CURVE('',#32,#117,#119,.T.);
#117 = VERTEX_POINT('',#118);
#118 = CARTESIAN_POINT('',(0.,105.,5.));
#119 = CIRCLE('',#120,5.);
#120 = AXIS2_PLACEMENT_3D('',#121,#122,#123);
#121 = CARTESIAN_POINT('',(0.,100.,5.));
#122 = DIRECTION('',(1.,-0.,0.));
#123 = DIRECTION('',(0.,0.,-1.));
#124 = ORIENTED_EDGE('',*,*,#125,.T.);
#125 = EDGE_CURVE('',#117,#126,#128,.T.);
#126 = VERTEX_POINT('',#127);
#127 = CARTESIAN_POINT('',(0.,103.,5.));
#128 = LINE('',#129,#130);
#129 = CARTESIAN_POINT('',(0.,105.,5.));
#130 = VECTOR('',#131,1.);
#131 = DIRECTION('',(0.,-1.,1.110223024625E-16));
#132 = ORIENTED_EDGE('',*,*,#133,.F.);
#133 = EDGE_CURVE('',#40,#126,#134,.T.);
#134 = CIRCLE('',#135,3.);
#135 = AXIS2_PLACEMENT_3D('',#136,#137,#138);
#136 = CARTESIAN_POINT('',(0.,100.,5.));
#137 = DIRECTION('',(1.,-0.,0.));
#138 = DIRECTION('',(0.,0.,-1.));
#139 = ORIENTED_EDGE('',*,*,#39,.F.);
#140 = PLANE('',#141);
#141 = AXIS2_PLACEMENT_3D('',#142,#143,#144);
#142 = CARTESIAN_POINT('',(0.,100.,5.));
#143 = DIRECTION('',(1.,0.,0.));
#144 = DIRECTION('',(0.,0.,-1.));
#145 = ADVANCED_FACE('',(#146),#164,.F.);
#146 = FACE_BOUND('',#147,.F.);
#147 = EDGE_LOOP('',(#148,#149,#150,#158));
#148 = ORIENTED_EDGE('',*,*,#31,.F.);
#149 = ORIENTED_EDGE('',*,*,#61,.T.);
#150 = ORIENTED_EDGE('',*,*,#151,.T.);
#151 = EDGE_CURVE('',#62,#152,#154,.T.);
#152 = VERTEX_POINT('',#153);
#153 = CARTESIAN_POINT('',(100.,100.,0.));
#154 = LINE('',#155,#156);
#155 = CARTESIAN_POINT('',(100.,0.,0.));
#156 = VECTOR('',#157,1.);
#157 = DIRECTION('',(0.,1.,0.));
#158 = ORIENTED_EDGE('',*,*,#159,.F.);
#159 = EDGE_CURVE('',#32,#152,#160,.T.);
#160 = LINE('',#161,#162);
#161 = CARTESIAN_POINT('',(0.,100.,0.));
#162 = VECTOR('',#163,1.);
#163 = DIRECTION('',(1.,0.,0.));
#164 = PLANE('',#165);
#165 = AXIS2_PLACEMENT_3D('',#166,#167,#168);
#166 = CARTESIAN_POINT('',(0.,0.,0.));
#167 = DIRECTION('',(0.,0.,1.));
#168 = DIRECTION('',(1.,0.,0.));
#169 = ADVANCED_FACE('',(#170),#197,.T.);
#170 = FACE_BOUND('',#171,.T.);
#171 = EDGE_LOOP('',(#172,#181,#189,#196));
#172 = ORIENTED_EDGE('',*,*,#173,.T.);
#173 = EDGE_CURVE('',#62,#174,#176,.T.);
#174 = VERTEX_POINT('',#175);
#175 = CARTESIAN_POINT('',(107.,0.,7.));
#176 = CIRCLE('',#177,7.);
#177 = AXIS2_PLACEMENT_3D('',#178,#179,#180);
#178 = CARTESIAN_POINT('',(100.,0.,7.));
#179 = DIRECTION('',(0.,-1.,0.));
#180 = DIRECTION('',(0.,0.,-1.));
#181 = ORIENTED_EDGE('',*,*,#182,.T.);
#182 = EDGE_CURVE('',#174,#183,#185,.T.);
#183 = VERTEX_POINT('',#184);
#184 = CARTESIAN_POINT('',(105.,0.,7.));
#185 = LINE('',#186,#187);
#186 = CARTESIAN_POINT('',(107.,0.,7.));
#187 = VECTOR('',#188,1.);
#188 = DIRECTION('',(-1.,0.,1.110223024625E-16));
#189 = ORIENTED_EDGE('',*,*,#190,.F.);
#190 = EDGE_CURVE('',#71,#183,#191,.T.);
#191 = CIRCLE('',#192,5.);
#192 = AXIS2_PLACEMENT_3D('',#193,#194,#195);
#193 = CARTESIAN_POINT('',(100.,0.,7.));
#194 = DIRECTION('',(0.,-1.,0.));
#195 = DIRECTION('',(0.,0.,-1.));
#196 = ORIENTED_EDGE('',*,*,#78,.F.);
#197 = PLANE('',#198);
#198 = AXIS2_PLACEMENT_3D('',#199,#200,#201);
#199 = CARTESIAN_POINT('',(100.,0.,7.));
#200 = DIRECTION('',(-0.,-1.,-0.));
#201 = DIRECTION('',(0.,0.,-1.));
#202 = ADVANCED_FACE('',(#203),#222,.F.);
#203 = FACE_BOUND('',#204,.F.);
#204 = EDGE_LOOP('',(#205,#206,#214,#221));
#205 = ORIENTED_EDGE('',*,*,#133,.T.);
#206 = ORIENTED_EDGE('',*,*,#207,.T.);
#207 = EDGE_CURVE('',#126,#208,#210,.T.);
#208 = VERTEX_POINT('',#209);
#209 = CARTESIAN_POINT('',(100.,103.,5.));
#210 = LINE('',#211,#212);
#211 = CARTESIAN_POINT('',(0.,103.,5.));
#212 = VECTOR('',#213,1.);
#213 = DIRECTION('',(1.,0.,0.));
#214 = ORIENTED_EDGE('',*,*,#215,.F.);
#215 = EDGE_CURVE('',#95,#208,#216,.T.);
#216 = CIRCLE('',#217,3.);
#217 = AXIS2_PLACEMENT_3D('',#218,#219,#220);
#218 = CARTESIAN_POINT('',(100.,100.,5.));
#219 = DIRECTION('',(1.,-0.,0.));
#220 = DIRECTION('',(0.,0.,-1.));
#221 = ORIENTED_EDGE('',*,*,#102,.F.);
#222 = CYLINDRICAL_SURFACE('',#223,3.);
#223 = AXIS2_PLACEMENT_3D('',#224,#225,#226);
#224 = CARTESIAN_POINT('',(0.,100.,5.));
#225 = DIRECTION('',(1.,0.,0.));
#226 = DIRECTION('',(0.,0.,-1.));
#227 = ADVANCED_FACE('',(#228),#247,.F.);
#228 = FACE_BOUND('',#229,.T.);
#229 = EDGE_LOOP('',(#230,#231,#239,#246));
#230 = ORIENTED_EDGE('',*,*,#190,.T.);
#231 = ORIENTED_EDGE('',*,*,#232,.T.);
#232 = EDGE_CURVE('',#183,#233,#235,.T.);
#233 = VERTEX_POINT('',#234);
#234 = CARTESIAN_POINT('',(105.,100.,7.));
#235 = LINE('',#236,#237);
#236 = CARTESIAN_POINT('',(105.,0.,7.));
#237 = VECTOR('',#238,1.);
#238 = DIRECTION('',(0.,1.,0.));
#239 = ORIENTED_EDGE('',*,*,#240,.F.);
#240 = EDGE_CURVE('',#95,#233,#241,.T.);
#241 = CIRCLE('',#242,5.);
#242 = AXIS2_PLACEMENT_3D('',#243,#244,#245);
#243 = CARTESIAN_POINT('',(100.,100.,7.));
#244 = DIRECTION('',(0.,-1.,0.));
#245 = DIRECTION('',(0.,0.,-1.));
#246 = ORIENTED_EDGE('',*,*,#94,.F.);
#247 = CYLINDRICAL_SURFACE('',#248,5.);
#248 = AXIS2_PLACEMENT_3D('',#249,#250,#251);
#249 = CARTESIAN_POINT('',(100.,0.,7.));
#250 = DIRECTION('',(0.,1.,0.));
#251 = DIRECTION('',(0.,0.,-1.));
#252 = ADVANCED_FACE('',(#253),#272,.T.);
#253 = FACE_BOUND('',#254,.F.);
#254 = EDGE_LOOP('',(#255,#264,#270,#271));
#255 = ORIENTED_EDGE('',*,*,#256,.T.);
#256 = EDGE_CURVE('',#152,#257,#259,.T.);
#257 = VERTEX_POINT('',#258);
#258 = CARTESIAN_POINT('',(100.,105.,5.));
#259 = CIRCLE('',#260,5.);
#260 = AXIS2_PLACEMENT_3D('',#261,#262,#263);
#261 = CARTESIAN_POINT('',(100.,100.,5.));
#262 = DIRECTION('',(1.,-0.,0.));
#263 = DIRECTION('',(0.,0.,-1.));
#264 = ORIENTED_EDGE('',*,*,#265,.T.);
#265 = EDGE_CURVE('',#257,#117,#266,.T.);
#266 = LINE('',#267,#268);
#267 = CARTESIAN_POINT('',(100.,105.,5.));
#268 = VECTOR('',#269,1.);
#269 = DIRECTION('',(-1.,0.,0.));
#270 = ORIENTED_EDGE('',*,*,#116,.F.);
#271 = ORIENTED_EDGE('',*,*,#159,.T.);
#272 = CYLINDRICAL_SURFACE('',#273,5.);
#273 = AXIS2_PLACEMENT_3D('',#274,#275,#276);
#274 = CARTESIAN_POINT('',(100.,100.,5.));
#275 = DIRECTION('',(-1.,0.,0.));
#276 = DIRECTION('',(0.,0.,-1.));
#277 = ADVANCED_FACE('',(#278),#303,.T.);
#278 = FACE_BOUND('',#279,.T.);
#279 = EDGE_LOOP('',(#280,#281,#289,#297));
#280 = ORIENTED_EDGE('',*,*,#125,.T.);
#281 = ORIENTED_EDGE('',*,*,#282,.T.);
#282 = EDGE_CURVE('',#126,#283,#285,.T.);
#283 = VERTEX_POINT('',#284);
#284 = CARTESIAN_POINT('',(0.,103.,25.));
#285 = LINE('',#286,#287);
#286 = CARTESIAN_POINT('',(0.,103.,5.));
#287 = VECTOR('',#288,1.);
#288 = DIRECTION('',(0.,1.110223024625E-16,1.));
#289 = ORIENTED_EDGE('',*,*,#290,.F.);
#290 = EDGE_CURVE('',#291,#283,#293,.T.);
#291 = VERTEX_POINT('',#292);
#292 = CARTESIAN_POINT('',(0.,105.,25.));
#293 = LINE('',#294,#295);
#294 = CARTESIAN_POINT('',(0.,105.,25.));
#295 = VECTOR('',#296,1.);
#296 = DIRECTION('',(0.,-1.,1.110223024625E-16));
#297 = ORIENTED_EDGE('',*,*,#298,.F.);
#298 = EDGE_CURVE('',#117,#291,#299,.T.);
#299 = LINE('',#300,#301);
#300 = CARTESIAN_POINT('',(0.,105.,5.));
#301 = VECTOR('',#302,1.);
#302 = DIRECTION('',(0.,1.110223024625E-16,1.));
#303 = PLANE('',#304);
#304 = AXIS2_PLACEMENT_3D('',#305,#306,#307);
#305 = CARTESIAN_POINT('',(0.,105.,5.));
#306 = DIRECTION('',(-1.,0.,0.));
#307 = DIRECTION('',(0.,1.110223024625E-16,1.));
#308 = ADVANCED_FACE('',(#309),#328,.T.);
#309 = FACE_BOUND('',#310,.T.);
#310 = EDGE_LOOP('',(#311,#320,#326,#327));
#311 = ORIENTED_EDGE('',*,*,#312,.T.);
#312 = EDGE_CURVE('',#152,#313,#315,.T.);
#313 = VERTEX_POINT('',#314);
#314 = CARTESIAN_POINT('',(107.,100.,7.));
#315 = CIRCLE('',#316,7.);
#316 = AXIS2_PLACEMENT_3D('',#317,#318,#319);
#317 = CARTESIAN_POINT('',(100.,100.,7.));
#318 = DIRECTION('',(0.,-1.,0.));
#319 = DIRECTION('',(0.,0.,-1.));
#320 = ORIENTED_EDGE('',*,*,#321,.T.);
#321 = EDGE_CURVE('',#313,#174,#322,.T.);
#322 = LINE('',#323,#324);
#323 = CARTESIAN_POINT('',(107.,100.,7.));
#324 = VECTOR('',#325,1.);
#325 = DIRECTION('',(0.,-1.,0.));
#326 = ORIENTED_EDGE('',*,*,#173,.F.);
#327 = ORIENTED_EDGE('',*,*,#151,.T.);
#328 = CYLINDRICAL_SURFACE('',#329,7.);
#329 = AXIS2_PLACEMENT_3D('',#330,#331,#332);
#330 = CARTESIAN_POINT('',(100.,100.,7.));
#331 = DIRECTION('',(-0.,-1.,-0.));
#332 = DIRECTION('',(0.,0.,-1.));
#333 = ADVANCED_FACE('',(#334),#359,.F.);
#334 = FACE_BOUND('',#335,.F.);
#335 = EDGE_LOOP('',(#336,#337,#345,#353));
#336 = ORIENTED_EDGE('',*,*,#182,.T.);
#337 = ORIENTED_EDGE('',*,*,#338,.T.);
#338 = EDGE_CURVE('',#183,#339,#341,.T.);
#339 = VERTEX_POINT('',#340);
#340 = CARTESIAN_POINT('',(105.,0.,37.));
#341 = LINE('',#342,#343);
#342 = CARTESIAN_POINT('',(105.,0.,7.));
#343 = VECTOR('',#344,1.);
#344 = DIRECTION('',(1.110223024625E-16,0.,1.));
#345 = ORIENTED_EDGE('',*,*,#346,.F.);
#346 = EDGE_CURVE('',#347,#339,#349,.T.);
#347 = VERTEX_POINT('',#348);
#348 = CARTESIAN_POINT('',(107.,0.,37.));
#349 = LINE('',#350,#351);
#350 = CARTESIAN_POINT('',(107.,0.,37.));
#351 = VECTOR('',#352,1.);
#352 = DIRECTION('',(-1.,0.,1.110223024625E-16));
#353 = ORIENTED_EDGE('',*,*,#354,.F.);
#354 = EDGE_CURVE('',#174,#347,#355,.T.);
#355 = LINE('',#356,#357);
#356 = CARTESIAN_POINT('',(107.,0.,7.));
#357 = VECTOR('',#358,1.);
#358 = DIRECTION('',(1.110223024625E-16,0.,1.));
#359 = PLANE('',#360);
#360 = AXIS2_PLACEMENT_3D('',#361,#362,#363);
#361 = CARTESIAN_POINT('',(107.,0.,7.));
#362 = DIRECTION('',(0.,1.,0.));
#363 = DIRECTION('',(1.110223024625E-16,0.,1.));
#364 = ADVANCED_FACE('',(#365),#381,.T.);
#365 = FACE_BOUND('',#366,.F.);
#366 = EDGE_LOOP('',(#367,#368,#374,#375));
#367 = ORIENTED_EDGE('',*,*,#215,.T.);
#368 = ORIENTED_EDGE('',*,*,#369,.T.);
#369 = EDGE_CURVE('',#208,#257,#370,.T.);
#370 = LINE('',#371,#372);
#371 = CARTESIAN_POINT('',(100.,103.,5.));
#372 = VECTOR('',#373,1.);
#373 = DIRECTION('',(0.,1.,-1.110223024625E-16));
#374 = ORIENTED_EDGE('',*,*,#256,.F.);
#375 = ORIENTED_EDGE('',*,*,#376,.T.);
#376 = EDGE_CURVE('',#152,#95,#377,.T.);
#377 = LINE('',#378,#379);
#378 = CARTESIAN_POINT('',(100.,100.,0.));
#379 = VECTOR('',#380,1.);
#380 = DIRECTION('',(0.,0.,1.));
#381 = PLANE('',#382);
#382 = AXIS2_PLACEMENT_3D('',#383,#384,#385);
#383 = CARTESIAN_POINT('',(100.,100.,5.));
#384 = DIRECTION('',(1.,0.,0.));
#385 = DIRECTION('',(0.,0.,-1.));
#386 = ADVANCED_FACE('',(#387),#405,.F.);
#387 = FACE_BOUND('',#388,.F.);
#388 = EDGE_LOOP('',(#389,#390,#391,#399));
#389 = ORIENTED_EDGE('',*,*,#207,.F.);
#390 = ORIENTED_EDGE('',*,*,#282,.T.);
#391 = ORIENTED_EDGE('',*,*,#392,.T.);
#392 = EDGE_CURVE('',#283,#393,#395,.T.);
#393 = VERTEX_POINT('',#394);
#394 = CARTESIAN_POINT('',(100.,103.,25.));
#395 = LINE('',#396,#397);
#396 = CARTESIAN_POINT('',(0.,103.,25.));
#397 = VECTOR('',#398,1.);
#398 = DIRECTION('',(1.,0.,0.));
#399 = ORIENTED_EDGE('',*,*,#400,.T.);
#400 = EDGE_CURVE('',#393,#208,#401,.T.);
#401 = LINE('',#402,#403);
#402 = CARTESIAN_POINT('',(100.,103.,25.));
#403 = VECTOR('',#404,1.);
#404 = DIRECTION('',(0.,-1.110223024625E-16,-1.));
#405 = PLANE('',#406);
#406 = AXIS2_PLACEMENT_3D('',#407,#408,#409);
#407 = CARTESIAN_POINT('',(50.,103.,15.));
#408 = DIRECTION('',(-0.,1.,-1.110223024625E-16));
#409 = DIRECTION('',(-1.,0.,0.));
#410 = ADVANCED_FACE('',(#411),#422,.F.);
#411 = FACE_BOUND('',#412,.T.);
#412 = EDGE_LOOP('',(#413,#414,#420,#421));
#413 = ORIENTED_EDGE('',*,*,#240,.T.);
#414 = ORIENTED_EDGE('',*,*,#415,.T.);
#415 = EDGE_CURVE('',#233,#313,#416,.T.);
#416 = LINE('',#417,#418);
#417 = CARTESIAN_POINT('',(105.,100.,7.));
#418 = VECTOR('',#419,1.);
#419 = DIRECTION('',(1.,0.,-1.110223024625E-16));
#420 = ORIENTED_EDGE('',*,*,#312,.F.);
#421 = ORIENTED_EDGE('',*,*,#376,.T.);
#422 = PLANE('',#423);
#423 = AXIS2_PLACEMENT_3D('',#424,#425,#426);
#424 = CARTESIAN_POINT('',(100.,100.,7.));
#425 = DIRECTION('',(-0.,-1.,-0.));
#426 = DIRECTION('',(0.,0.,-1.));
#427 = ADVANCED_FACE('',(#428),#446,.T.);
#428 = FACE_BOUND('',#429,.T.);
#429 = EDGE_LOOP('',(#430,#431,#432,#440));
#430 = ORIENTED_EDGE('',*,*,#232,.F.);
#431 = ORIENTED_EDGE('',*,*,#338,.T.);
#432 = ORIENTED_EDGE('',*,*,#433,.T.);
#433 = EDGE_CURVE('',#339,#434,#436,.T.);
#434 = VERTEX_POINT('',#435);
#435 = CARTESIAN_POINT('',(105.,100.,37.));
#436 = LINE('',#437,#438);
#437 = CARTESIAN_POINT('',(105.,0.,37.));
#438 = VECTOR('',#439,1.);
#439 = DIRECTION('',(0.,1.,0.));
#440 = ORIENTED_EDGE('',*,*,#441,.T.);
#441 = EDGE_CURVE('',#434,#233,#442,.T.);
#442 = LINE('',#443,#444);
#443 = CARTESIAN_POINT('',(105.,100.,37.));
#444 = VECTOR('',#445,1.);
#445 = DIRECTION('',(-1.110223024625E-16,0.,-1.));
#446 = PLANE('',#447);
#447 = AXIS2_PLACEMENT_3D('',#448,#449,#450);
#448 = CARTESIAN_POINT('',(105.,50.,22.));
#449 = DIRECTION('',(-1.,0.,1.110223024625E-16));
#450 = DIRECTION('',(1.110223024625E-16,0.,1.));
#451 = ADVANCED_FACE('',(#452),#470,.T.);
#452 = FACE_BOUND('',#453,.T.);
#453 = EDGE_LOOP('',(#454,#455,#456,#464));
#454 = ORIENTED_EDGE('',*,*,#265,.T.);
#455 = ORIENTED_EDGE('',*,*,#298,.T.);
#456 = ORIENTED_EDGE('',*,*,#457,.T.);
#457 = EDGE_CURVE('',#291,#458,#460,.T.);
#458 = VERTEX_POINT('',#459);
#459 = CARTESIAN_POINT('',(100.,105.,25.));
#460 = LINE('',#461,#462);
#461 = CARTESIAN_POINT('',(0.,105.,25.));
#462 = VECTOR('',#463,1.);
#463 = DIRECTION('',(1.,0.,0.));
#464 = ORIENTED_EDGE('',*,*,#465,.T.);
#465 = EDGE_CURVE('',#458,#257,#466,.T.);
#466 = LINE('',#467,#468);
#467 = CARTESIAN_POINT('',(100.,105.,25.));
#468 = VECTOR('',#469,1.);
#469 = DIRECTION('',(0.,-1.110223024625E-16,-1.));
#470 = PLANE('',#471);
#471 = AXIS2_PLACEMENT_3D('',#472,#473,#474);
#472 = CARTESIAN_POINT('',(50.,105.,15.));
#473 = DIRECTION('',(-0.,1.,-1.110223024625E-16));
#474 = DIRECTION('',(-1.,0.,0.));
#475 = ADVANCED_FACE('',(#476),#487,.T.);
#476 = FACE_BOUND('',#477,.T.);
#477 = EDGE_LOOP('',(#478,#479,#480,#486));
#478 = ORIENTED_EDGE('',*,*,#290,.T.);
#479 = ORIENTED_EDGE('',*,*,#392,.T.);
#480 = ORIENTED_EDGE('',*,*,#481,.F.);
#481 = EDGE_CURVE('',#458,#393,#482,.T.);
#482 = LINE('',#483,#484);
#483 = CARTESIAN_POINT('',(100.,105.,25.));
#484 = VECTOR('',#485,1.);
#485 = DIRECTION('',(0.,-1.,1.110223024625E-16));
#486 = ORIENTED_EDGE('',*,*,#457,.F.);
#487 = PLANE('',#488);
#488 = AXIS2_PLACEMENT_3D('',#489,#490,#491);
#489 = CARTESIAN_POINT('',(0.,105.,25.));
#490 = DIRECTION('',(0.,1.110223024625E-16,1.));
#491 = DIRECTION('',(1.,0.,0.));
#492 = ADVANCED_FACE('',(#493),#511,.F.);
#493 = FACE_BOUND('',#494,.F.);
#494 = EDGE_LOOP('',(#495,#496,#497,#505));
#495 = ORIENTED_EDGE('',*,*,#321,.T.);
#496 = ORIENTED_EDGE('',*,*,#354,.T.);
#497 = ORIENTED_EDGE('',*,*,#498,.T.);
#498 = EDGE_CURVE('',#347,#499,#501,.T.);
#499 = VERTEX_POINT('',#500);
#500 = CARTESIAN_POINT('',(107.,100.,37.));
#501 = LINE('',#502,#503);
#502 = CARTESIAN_POINT('',(107.,0.,37.));
#503 = VECTOR('',#504,1.);
#504 = DIRECTION('',(0.,1.,0.));
#505 = ORIENTED_EDGE('',*,*,#506,.T.);
#506 = EDGE_CURVE('',#499,#313,#507,.T.);
#507 = LINE('',#508,#509);
#508 = CARTESIAN_POINT('',(107.,100.,37.));
#509 = VECTOR('',#510,1.);
#510 = DIRECTION('',(-1.110223024625E-16,0.,-1.));
#511 = PLANE('',#512);
#512 = AXIS2_PLACEMENT_3D('',#513,#514,#515);
#513 = CARTESIAN_POINT('',(107.,50.,22.));
#514 = DIRECTION('',(-1.,0.,1.110223024625E-16));
#515 = DIRECTION('',(1.110223024625E-16,0.,1.));
#516 = ADVANCED_FACE('',(#517),#528,.F.);
#517 = FACE_BOUND('',#518,.F.);
#518 = EDGE_LOOP('',(#519,#520,#521,#527));
#519 = ORIENTED_EDGE('',*,*,#346,.T.);
#520 = ORIENTED_EDGE('',*,*,#433,.T.);
#521 = ORIENTED_EDGE('',*,*,#522,.F.);
#522 = EDGE_CURVE('',#499,#434,#523,.T.);
#523 = LINE('',#524,#525);
#524 = CARTESIAN_POINT('',(107.,100.,37.));
#525 = VECTOR('',#526,1.);
#526 = DIRECTION('',(-1.,0.,1.110223024625E-16));
#527 = ORIENTED_EDGE('',*,*,#498,.F.);
#528 = PLANE('',#529);
#529 = AXIS2_PLACEMENT_3D('',#530,#531,#532);
#530 = CARTESIAN_POINT('',(107.,0.,37.));
#531 = DIRECTION('',(-1.110223024625E-16,0.,-1.));
#532 = DIRECTION('',(0.,1.,0.));
#533 = ADVANCED_FACE('',(#534),#540,.T.);
#534 = FACE_BOUND('',#535,.T.);
#535 = EDGE_LOOP('',(#536,#537,#538,#539));
#536 = ORIENTED_EDGE('',*,*,#481,.T.);
#537 = ORIENTED_EDGE('',*,*,#400,.T.);
#538 = ORIENTED_EDGE('',*,*,#369,.T.);
#539 = ORIENTED_EDGE('',*,*,#465,.F.);
#540 = PLANE('',#541);
#541 = AXIS2_PLACEMENT_3D('',#542,#543,#544);
#542 = CARTESIAN_POINT('',(100.,105.,25.));
#543 = DIRECTION('',(1.,0.,0.));
#544 = DIRECTION('',(0.,-1.110223024625E-16,-1.));
#545 = ADVANCED_FACE('',(#546),#552,.F.);
#546 = FACE_BOUND('',#547,.F.);
#547 = EDGE_LOOP('',(#548,#549,#550,#551));
#548 = ORIENTED_EDGE('',*,*,#522,.T.);
#549 = ORIENTED_EDGE('',*,*,#441,.T.);
#550 = ORIENTED_EDGE('',*,*,#415,.T.);
#551 = ORIENTED_EDGE('',*,*,#506,.F.);
#552 = PLANE('',#553);
#553 = AXIS2_PLACEMENT_3D('',#554,#555,#556);
#554 = CARTESIAN_POINT('',(107.,100.,37.));
#555 = DIRECTION('',(0.,-1.,0.));
#556 = DIRECTION('',(-1.110223024625E-16,0.,-1.));
#557 = ( GEOMETRIC_REPRESENTATION_CONTEXT(3) 
GLOBAL_UNCERTAINTY_ASSIGNED_CONTEXT((#561)) GLOBAL_UNIT_ASSIGNED_CONTEXT
((#558,#559,#560)) REPRESENTATION_CONTEXT('Context #1',
  '3D Context with UNIT and UNCERTAINTY') );
#558 = ( LENGTH_UNIT() NAMED_UNIT(*) SI_UNIT(.MILLI.,.METRE.) );
#559 = ( NAMED_UNIT(*) PLANE_ANGLE_UNIT() SI_UNIT($,.RADIAN.) );
#560 = ( NAMED_UNIT(*) SI_UNIT($,.STERADIAN.) SOLID_ANGLE_UNIT() );
#561 = UNCERTAINTY_MEASURE_WITH_UNIT(LENGTH_MEASURE(1.E-07),#558,
  'distance_accuracy_value','confusion accuracy');
#562 = PRODUCT_RELATED_PRODUCT_CATEGORY('part',$,(#7));
ENDSEC;
END-ISO-10303-21;
